<svg xmlns="http://www.w3.org/2000/svg" fill="none" width="18" height="18"><rect width="18" height="18" rx="0" fill="none"/><path d="M15.616 9.884Q15.25 9.518 15.25 9t.366-.884q.366-.366.884-.366.074 0 .146-.014.073-.015.141-.043.068-.028.13-.07.061-.04.113-.093.053-.052.094-.113.04-.062.069-.13.028-.068.043-.14.014-.073.014-.147V5q0-1.14-.806-1.945-.805-.805-1.944-.805h-11q-1.14 0-1.945.805Q.75 3.861.75 5v2q0 .074.014.146.015.073.043.141.028.068.07.13.04.061.093.113.052.053.113.094.062.04.13.069.068.028.14.043.073.014.147.014.518 0 .884.366T2.75 9q0 .518-.366.884t-.884.366q-.074 0-.146.014-.073.015-.141.043-.068.028-.13.07-.061.04-.113.093-.053.052-.094.113-.04.062-.069.13-.028.068-.043.14Q.75 10.927.75 11v2q0 1.14.805 1.944.806.806 1.945.806h11q1.14 0 1.944-.806.806-.805.806-1.944v-2q0-.074-.014-.146-.015-.073-.043-.141-.028-.068-.07-.13-.04-.061-.093-.113-.052-.053-.113-.094-.062-.04-.13-.069-.068-.028-.14-.043-.073-.014-.147-.014-.518 0-.884-.366Zm-1.06-2.829Q13.75 7.861 13.75 9q0 1.14.806 1.945.526.526 1.194.708V13q0 .518-.366.884t-.884.366h-11q-.518 0-.884-.366T2.25 13v-1.347q.668-.182 1.195-.708.805-.806.805-1.945 0-1.14-.805-1.945-.527-.526-1.195-.708V5q0-.518.366-.884T3.5 3.75h11q.518 0 .884.366T15.75 5v1.347q-.668.182-1.194.708Z" fill-rule="evenodd" fill="#494F5A"/><path d="M8.25 11V7q0-.074.014-.146.015-.073.043-.141.028-.068.07-.13.04-.061.093-.113.052-.053.113-.094.062-.04.13-.069.068-.028.14-.043.073-.014.147-.014t.146.014q.073.015.141.043.068.028.13.07.061.04.113.093.053.052.094.113.04.062.069.13.028.068.043.14.014.073.014.147v4q0 .074-.014.146-.015.073-.043.141-.028.068-.07.13-.04.061-.093.113-.052.053-.113.094-.062.04-.13.069-.068.028-.14.043-.073.014-.147.014t-.146-.014q-.073-.015-.141-.043-.068-.028-.13-.07-.061-.04-.113-.093-.053-.052-.094-.113-.04-.062-.069-.13-.028-.068-.043-.14-.014-.073-.014-.147Z" fill-rule="evenodd" fill="#999DA3"/><path d="M11 9.75H7q-.073 0-.146-.014-.072-.014-.14-.042-.069-.029-.13-.07-.062-.04-.114-.093-.052-.052-.093-.114-.041-.061-.07-.13-.028-.068-.042-.14Q6.25 9.074 6.25 9q0-.074.015-.147.014-.072.043-.14.028-.069.069-.13.04-.061.093-.114.052-.052.114-.093.061-.041.13-.07.068-.028.14-.042.073-.014.146-.014h4q.074 0 .147.014.072.014.14.043.069.028.13.069.062.041.114.093.052.053.093.114.041.061.07.13.028.068.042.14.014.073.014.147 0 .073-.014.146-.014.072-.043.14-.028.069-.069.13-.041.062-.093.114-.052.052-.114.093-.061.041-.13.07-.068.028-.14.042-.073.015-.147.015Z" fill-rule="evenodd" fill="#999DA3"/></svg>