<svg width="18" height="18" xmlns="http://www.w3.org/2000/svg"><g id="插件" stroke="none" stroke-width="1" fill="none" fill-rule="evenodd"><g id="Chat-AI-鼓励备份-7" transform="translate(-807 -699)"><g id="编组-19备份-2" transform="translate(423 699)"><g id="icon_反馈备份-7" transform="translate(384)"><path id="矩形" fill-opacity="0" fill="#EBEBEB" d="M0 0h18v18H0z"/><path d="m13.242 2.859 1.564 1.563a2 2 0 0 1 0 2.829l-7.412 7.412a2 2 0 0 1-1.414.585H3.416a1 1 0 0 1-1-1v-2.563a2 2 0 0 1 .586-1.415l7.412-7.411a2 2 0 0 1 2.828 0Z" id="矩形" stroke="#494F5A" stroke-width="1.5" stroke-linecap="round" stroke-linejoin="round"/><path id="直线-4" stroke="#494F5A" stroke-width="1.5" stroke-linecap="round" stroke-linejoin="round" d="m9.394 4.461 3.983 3.957"/><path d="M10.718 15.108c.739-.405 1.452-.405 2.14 0 .688.404 1.401.404 2.14 0" id="直线-2备份" stroke="#999DA3" stroke-width="1.5" stroke-linecap="round"/></g></g></g></g></svg>