<svg width="18" height="18" xmlns="http://www.w3.org/2000/svg"><g id="插件" stroke="none" stroke-width="1" fill="none" fill-rule="evenodd"><g id="Chat-AI-鼓励备份-7" transform="translate(-935 -699)"><g id="编组-19备份-2" transform="translate(423 699)"><g id="icon-grammar-check" transform="translate(512)"><path id="矩形" fill-opacity="0" fill="#FFF" d="M0 0h18v18H0z"/><g id="编组-13" transform="translate(2.5 1.5)" stroke-linecap="round" stroke-linejoin="round" stroke-width="1.5"><path d="M4 0h4.38a2 2 0 0 1 1.489.664l2.62 2.92A2 2 0 0 1 13 4.92V11a4 4 0 0 1-4 4H4a4 4 0 0 1-4-4V4a4 4 0 0 1 4-4Z" id="矩形" stroke="#494F5A"/><path d="M12.481 4.67h-2a2 2 0 0 1-2-2v-2h0" id="路径" stroke="#494F5A"/><path d="M4.975 7.475v2a8.557 8.557 0 0 1 2.013-.245c.666 0 1.329.082 1.987.245" id="直线-2" stroke="#999DA3" transform="rotate(-45 6.975 8.475)"/></g></g></g></g></g></svg>